<svg width="304" height="398" viewBox="0 0 304 398" fill="none" xmlns="http://www.w3.org/2000/svg"> 
 <path fill-rule="evenodd" clip-rule="evenodd" d="M0.0828056 284L151.083 398L303.083 284L303.083 149.5L249.583 179.5L249.583 55L276.583 64.5V136.5L303.083 122.5L303.083 39.5L179.583 0V346.5L151.083 366L126.583 346.5V0L0.0828056 39.5L-7.24766e-05 179.5L51.4999 159.5L51.5 284L27.0828 264V192L0.0828056 204V284ZM101.583 39.5L27.0828 61L26.9999 140.5L75.8343 122.5L75.9172 304L101.583 325.023V39.5ZM276.583 277.5L201.083 332.5V39.5L227.583 49L227.583 230.5L276.583 199.5L276.583 277.5Z" fill="white"/> 
 </svg>